<?xml version="1.0" encoding="UTF-8" standalone="no"?>
<!-- Created with Inkscape (http://www.inkscape.org/) -->

<svg
   xmlns:dc="http://purl.org/dc/elements/1.1/"
   xmlns:cc="http://creativecommons.org/ns#"
   xmlns:rdf="http://www.w3.org/1999/02/22-rdf-syntax-ns#"
   xmlns:svg="http://www.w3.org/2000/svg"
   xmlns="http://www.w3.org/2000/svg"
   xmlns:xlink="http://www.w3.org/1999/xlink"
   xmlns:sodipodi="http://sodipodi.sourceforge.net/DTD/sodipodi-0.dtd"
   xmlns:inkscape="http://www.inkscape.org/namespaces/inkscape"
   width="500"
   height="500"
   viewBox="0 0 132.29166 132.29167"
   version="1.1"
   id="svg155"
   inkscape:version="0.92.5 (2060ec1f9f, 2020-04-08)"
   sodipodi:docname="logo.svg"
   inkscape:export-filename="C:\Users\Mundo\Desktop\Jam Assistant\logo.png"
   inkscape:export-xdpi="96"
   inkscape:export-ydpi="96">
  <defs
     id="defs149">
    <linearGradient
       inkscape:collect="always"
       xlink:href="#linearGradient202"
       id="linearGradient204"
       x1="143.25298"
       y1="32.794643"
       x2="144.3869"
       y2="108.0119"
       gradientUnits="userSpaceOnUse"
       gradientTransform="matrix(1.5624999,0,0,1.5625002,-157.09634,115.23848)" />
    <linearGradient
       inkscape:collect="always"
       id="linearGradient202">
      <stop
         style="stop-color:#ee3f40;stop-opacity:1"
         offset="0"
         id="stop198" />
      <stop
         style="stop-color:#fabf30;stop-opacity:1"
         offset="1"
         id="stop200" />
    </linearGradient>
    <linearGradient
       inkscape:collect="always"
       xlink:href="#linearGradient180"
       id="linearGradient182"
       x1="70.559151"
       y1="32.135899"
       x2="70.291885"
       y2="98.151474"
       gradientUnits="userSpaceOnUse"
       gradientTransform="matrix(0.60088999,0,0,0.60088999,146.86748,90.224496)" />
    <linearGradient
       inkscape:collect="always"
       id="linearGradient180">
      <stop
         style="stop-color:#ed3342;stop-opacity:1"
         offset="0"
         id="stop176" />
      <stop
         style="stop-color:#fabf30;stop-opacity:1"
         offset="1"
         id="stop178" />
    </linearGradient>
  </defs>
  <sodipodi:namedview
     id="base"
     pagecolor="#ffffff"
     bordercolor="#666666"
     borderopacity="1.0"
     inkscape:pageopacity="0.0"
     inkscape:pageshadow="2"
     inkscape:zoom="0.7"
     inkscape:cx="210.8742"
     inkscape:cy="296.89754"
     inkscape:document-units="mm"
     inkscape:current-layer="layer1"
     showgrid="true"
     units="px"
     showguides="true"
     inkscape:guide-bbox="true"
     inkscape:window-width="1280"
     inkscape:window-height="705"
     inkscape:window-x="-8"
     inkscape:window-y="-8"
     inkscape:window-maximized="1">
    <inkscape:grid
       type="xygrid"
       id="grid173" />
    <sodipodi:guide
       position="0,132.29167"
       orientation="1,0"
       id="guide175"
       inkscape:locked="false" />
    <sodipodi:guide
       position="5.2916664,132.29167"
       orientation="0,1"
       id="guide177"
       inkscape:locked="false" />
    <sodipodi:guide
       position="5.2916664,0"
       orientation="0,1"
       id="guide179"
       inkscape:locked="false" />
    <sodipodi:guide
       position="132.29166,89.958336"
       orientation="1,0"
       id="guide181"
       inkscape:locked="false" />
  </sodipodi:namedview>
  <metadata
     id="metadata152">
    <rdf:RDF>
      <cc:Work
         rdf:about="">
        <dc:format>image/svg+xml</dc:format>
        <dc:type
           rdf:resource="http://purl.org/dc/dcmitype/StillImage" />
        <dc:title></dc:title>
      </cc:Work>
    </rdf:RDF>
  </metadata>
  <g
     inkscape:label="Camada 1"
     inkscape:groupmode="layer"
     id="layer1"
     transform="translate(0,-164.70832)">
    <rect
       style="fill:none;fill-opacity:1;stroke-width:0.26458332"
       id="rect225"
       width="132.29167"
       height="132.29167"
       x="0"
       y="164.70831" />
    <path
       style="fill:#ffffff;fill-opacity:1;stroke-width:0.36285067"
       d="m 64.623717,175.25261 c -2.354849,0.0162 -4.546891,0.11622 -6.31662,0.31167 -21.330101,2.35547 -37.234579,12.0678 -41.906362,25.59117 -0.866397,2.50814 -1.002227,3.47013 -1.008515,7.07561 -0.0052,3.54728 0.174378,4.88001 1.197452,8.88998 1.971083,7.72626 5.923951,17.75209 11.016756,27.93999 4.134538,8.27085 8.361287,15.42996 12.571944,21.36174 0.381914,-1.12176 0.90859,-2.30514 1.657652,-3.82082 4.578543,-9.26405 15.599048,-17.94023 30.841965,-24.28149 3.252213,-1.35296 5.05056,-2.47762 5.263722,-3.29274 0.178077,-0.68094 0.981353,-6.76919 1.785288,-13.52955 1.257802,-10.57727 1.332783,-12.37916 0.540154,-12.9183 -0.550933,-0.37471 -5.586343,-0.51402 -12.529117,-0.34719 -12.080198,0.29015 -16.359364,1.05951 -20.72868,3.72879 -3.991786,2.43861 -5.110847,7.63074 -2.761494,12.81008 1.616568,3.56373 1.21193,5.46377 -1.516353,7.12732 -6.177196,3.76639 -11.125607,-1.71697 -11.090283,-12.28929 0.0354,-10.51912 5.984932,-16.93805 19.111427,-20.6173 14.575711,-4.08545 43.672759,-2.69159 48.101076,2.30444 2.462651,2.7784 1.508741,6.87209 -1.937059,8.31186 l -2.106646,0.8801 -1.17402,8.92306 c -1.8264,13.87626 -3.503865,23.01033 -5.935494,32.32116 -4.470777,17.1188 -10.289151,28.26618 -17.87926,34.14684 4.742908,-1.10248 9.662388,-4.40698 14.962755,-10.00019 12.008623,-12.67211 26.478805,-39.82974 31.307815,-58.75851 1.02303,-4.00997 1.20372,-5.3427 1.19746,-8.88998 -0.006,-3.60548 -0.14268,-4.56747 -1.00929,-7.07561 -4.23247,-12.25176 -17.964777,-21.59923 -36.514254,-24.8548 -3.992689,-0.70072 -9.961288,-1.08151 -15.142019,-1.04804 z m 10.525851,72.74992 c -2.207792,-0.05 -13.010347,6.66947 -17.150117,10.80927 -4.410137,4.41017 -6.314692,8.58191 -6.352157,13.91308 -0.02985,4.09244 0.104096,4.52361 1.860353,6.03563 1.584307,1.36398 2.353897,1.57691 4.738892,1.30808 2.259706,-0.25469 3.429153,-0.89255 5.666639,-3.08849 4.635216,-4.54916 8.180723,-12.43323 10.938464,-24.32425 0.535317,-2.30833 0.814324,-4.35577 0.620106,-4.54996 -0.06635,-0.0664 -0.174906,-0.0999 -0.32218,-0.10359 z"
       id="path184"
       inkscape:connector-curvature="0"
       inkscape:export-filename="C:\Users\Mundo\Desktop\text284.png"
       inkscape:export-xdpi="120"
       inkscape:export-ydpi="120" />
    <g
       id="g100"
       transform="matrix(2.6322104,0,0,2.6322104,-432.61469,-123.45149)"
       inkscape:export-filename="C:\Users\Mundo\Desktop\text284.png"
       inkscape:export-xdpi="120"
       inkscape:export-ydpi="120">
      <path
         sodipodi:nodetypes="cscccssccssc"
         inkscape:connector-curvature="0"
         id="path158"
         d="m 187.31555,158.65376 c -4.60869,-1.47359 -9.89297,-7.7758 -14.87297,-17.738 -2.23145,-4.46389 -3.96357,-8.85656 -4.82721,-12.24188 -0.44824,-1.757 -0.52688,-2.34088 -0.52467,-3.89514 0.002,-1.57977 0.0624,-2.00126 0.44199,-3.10022 2.04697,-5.92534 9.01575,-10.18104 18.36169,-11.2131 2.48133,-0.274 6.85764,-0.12373 9.40224,0.32286 8.12758,1.42644 14.14451,5.52206 15.99899,10.89024 0.37964,1.09896 0.43974,1.52045 0.44199,3.10022 0.002,1.55426 -0.0764,2.13814 -0.52467,3.89514 -2.11586,8.29379 -8.45611,20.19315 -13.71778,25.74553 -3.69555,3.89971 -6.96842,5.26111 -10.1796,4.23435 z"
         style="fill:url(#linearGradient182);fill-opacity:1;stroke-width:0.15898547" />
      <g
         transform="matrix(0.60088999,0,0,0.60088999,101.0966,57.622775)"
         id="g163">
        <path
           style="fill:#ffffff;stroke-width:0.19380005"
           d="m 124.89126,132.58438 c -1.89425,-0.88208 -2.71341,-2.4632 -2.56896,-4.95855 0.0743,-1.28423 0.21066,-1.79269 0.80063,-2.98643 1.37594,-2.78401 4.68772,-5.39135 9.2685,-7.29702 0.97735,-0.40659 1.51769,-0.74465 1.58175,-0.98961 0.0535,-0.20463 0.29497,-2.0343 0.53656,-4.06592 0.378,-3.17867 0.40066,-3.72014 0.16246,-3.88216 -0.16557,-0.11261 -1.67879,-0.15459 -3.76522,-0.10446 -3.63032,0.0872 -4.91635,0.31861 -6.22942,1.12078 -1.1996,0.73285 -1.536,2.29316 -0.82997,3.84965 0.4858,1.07096 0.36435,1.64198 -0.45556,2.1419 -1.85636,1.13187 -3.3436,-0.51619 -3.33297,-3.69337 0.0106,-3.16118 1.79874,-5.09019 5.74349,-6.19588 4.38028,-1.22775 13.1245,-0.80878 14.45528,0.69262 0.74008,0.83496 0.45336,2.06514 -0.58217,2.49781 l -0.63308,0.26452 -0.35294,2.68156 c -0.54887,4.17008 -1.05293,6.91497 -1.78368,9.71306 -1.59741,6.11654 -3.76721,9.69727 -6.72383,11.09598 -1.62017,0.76647 -3.79117,0.81387 -5.29087,0.11552 z m 4.86618,-3.62411 c 1.39297,-1.36711 2.45842,-3.73642 3.28717,-7.3099 0.16088,-0.69369 0.24474,-1.30902 0.18637,-1.36739 -0.31866,-0.31866 -3.92363,1.89022 -5.25064,3.21724 -1.32534,1.32534 -1.89779,2.57913 -1.90905,4.18125 -0.009,1.22986 0.0313,1.35946 0.5591,1.81385 0.47611,0.4099 0.70737,0.47371 1.4241,0.39292 0.67909,-0.0765 1.03054,-0.26805 1.70295,-0.92797 z m 12.25261,1.17805 c -0.91961,-0.2772 -1.6992,-0.97604 -2.23749,-2.0057 -0.46545,-0.89034 -0.52152,-1.20306 -0.50947,-2.84154 0.0157,-2.13232 0.48348,-3.64537 1.68826,-5.46045 1.30072,-1.95962 3.52178,-3.37236 5.64668,-3.59167 1.02676,-0.10597 1.07109,-0.0906 1.40167,0.48538 0.31646,0.5514 0.41372,0.59223 1.33232,0.55943 1.82572,-0.0652 1.91769,0.30379 1.14794,4.60581 -0.61048,3.4119 -0.63745,4.85597 -0.0961,5.1457 0.5168,0.27658 0.99511,0.0189 2.27715,-1.22684 0.91944,-0.89338 1.01745,-1.0697 1.01745,-1.83022 0,-2.31102 0.95722,-6.3745 1.66937,-7.08666 0.71592,-0.71591 2.34391,-0.95351 2.79653,-0.40814 0.20638,0.24866 0.15783,0.6913 -0.27953,2.54835 -0.29111,1.23608 -0.57548,2.69225 -0.63194,3.23592 l -0.10265,0.98849 0.98125,-1.9642 c 2.0053,-4.01408 5.04802,-6.10654 6.74812,-4.64065 0.49784,0.42926 0.541,0.57245 0.51105,1.69575 -0.0179,0.67479 -0.20474,1.98998 -0.41501,2.92265 -0.21026,0.93266 -0.35227,1.69575 -0.31556,1.69575 0.0367,0 0.48252,-0.80505 0.99071,-1.78899 1.21,-2.3428 2.98579,-4.20048 4.48847,-4.69546 1.65319,-0.54456 2.81568,-0.11136 3.04069,1.1331 0.06,0.33178 -0.11273,2.20242 -0.38381,4.15696 -0.27109,1.95455 -0.49302,4.30922 -0.49318,5.2326 -3.9e-4,2.05833 -0.35893,2.9369 -1.30785,3.20459 -1.00931,0.28471 -1.82726,-0.0486 -2.25396,-0.91858 -0.35286,-0.7194 -0.35385,-0.82368 -0.0313,-3.29133 0.18317,-1.40161 0.38068,-3.13706 0.43889,-3.85654 0.1002,-1.23836 0.0839,-1.30815 -0.30657,-1.30815 -0.87843,0 -2.50343,2.96692 -3.49078,6.37344 -0.31522,1.08757 -0.71075,2.18743 -0.87894,2.44412 -0.40914,0.62444 -1.49984,0.83165 -2.14666,0.40785 -1.13774,-0.74549 -1.3999,-2.22858 -0.98544,-5.57483 0.40194,-3.24513 0.3964,-3.65058 -0.0499,-3.65058 -0.1946,0 -0.53746,0.19622 -0.7619,0.43605 -0.66992,0.71582 -1.93117,3.58558 -2.57654,5.86245 -0.71448,2.52071 -0.94236,2.9269 -1.74038,3.10217 -0.89019,0.19552 -1.63684,-0.19836 -2.03038,-1.07108 l -0.33873,-0.75116 -0.86099,0.65741 c -1.18596,0.90555 -2.38787,1.3391 -3.25917,1.17564 -0.81109,-0.15215 -2.17707,-1.30217 -2.34595,-1.97503 -0.10803,-0.4304 -0.46095,-0.65671 -0.46095,-0.29558 0,0.0902 -0.31999,0.49355 -0.71108,0.89626 -1.21278,1.24875 -2.7192,1.70616 -4.17435,1.26751 z m 2.9541,-3.1066 c 0.75913,-0.40628 1.3061,-1.78515 1.91466,-4.82668 0.32894,-1.64403 0.59807,-3.0612 0.59807,-3.14925 0,-0.28203 -0.76783,-0.17175 -1.53729,0.2208 -1.67308,0.85354 -2.89206,3.05511 -3.06188,5.52998 -0.0812,1.18397 -0.0394,1.42443 0.32911,1.88956 0.44455,0.56117 1.10143,0.68661 1.75733,0.33559 z"
           id="path103"
           inkscape:connector-curvature="0" />
        <text
           xml:space="preserve"
           style="font-style:normal;font-weight:normal;font-size:6.96831608px;line-height:1.25;font-family:sans-serif;letter-spacing:0px;word-spacing:0px;fill:#ffffff;fill-opacity:1;stroke:none;stroke-width:0.1742079"
           x="124.23656"
           y="139.86559"
           id="text107"><tspan
             sodipodi:role="line"
             id="tspan105"
             x="124.23656"
             y="139.86559"
             style="font-style:normal;font-variant:normal;font-weight:normal;font-stretch:normal;font-family:Poppins;-inkscape-font-specification:Poppins;letter-spacing:1.32291663px;fill:#ffffff;stroke-width:0.1742079">ASSISTANT</tspan></text>
      </g>
    </g>
  </g>
</svg>
